<svg xmlns="http://www.w3.org/2000/svg" width="23" height="19" viewBox="0 0 23 19"><path fill="#95756a" d="M11.5 13.85a3.69 3.69 0 0 1-3.64-3.73 3.69 3.69 0 0 1 3.64-3.73 3.69 3.69 0 0 1 3.65 3.73 3.69 3.69 0 0 1-3.65 3.73zm0-8.7a4.92 4.92 0 0 0-4.86 4.97 4.92 4.92 0 0 0 4.86 4.97 4.92 4.92 0 0 0 4.86-4.97 4.92 4.92 0 0 0-4.86-4.97zm7.3 0c-.68 0-1.22.56-1.22 1.24 0 .69.54 1.25 1.21 1.25.67 0 1.22-.56 1.22-1.25 0-.68-.55-1.24-1.22-1.24zm0 3.73c-.34 0-.61.28-.61.62 0 .34.27.62.6.62.34 0 .61-.28.61-.62a.62.62 0 0 0-.6-.62zm2.42 7.45c0 .69-.54 1.24-1.21 1.24H3c-.67 0-1.22-.55-1.22-1.24V5.15c0-.68.55-1.24 1.22-1.24h2.43c2.43 0 2.43-2.48 4.25-2.48H13.33c1.82 0 1.82 2.48 4.25 2.48H20c.67 0 1.21.56 1.21 1.24zM20.01 2.67h-2.43c-1.82 0-1.82-2.49-4.25-2.49H9.68c-2.43 0-2.43 2.49-4.25 2.49H3A2.46 2.46 0 0 0 .57 5.15v11.18A2.46 2.46 0 0 0 3 18.81h17a2.46 2.46 0 0 0 2.44-2.48V5.15A2.46 2.46 0 0 0 20 2.67zm-7.3 7.45c0-.69-.54-1.24-1.2-1.24-.68 0-1.22.55-1.22 1.24s.54 1.24 1.21 1.24c.67 0 1.22-.55 1.22-1.24zm1.22 0a2.46 2.46 0 0 1-2.43 2.48 2.46 2.46 0 0 1-2.43-2.48 2.46 2.46 0 0 1 2.43-2.48 2.46 2.46 0 0 1 2.43 2.48z"/></svg>