<svg xmlns="http://www.w3.org/2000/svg" width="30" height="31" viewBox="0 0 30 31"><path fill="#fff" d="M29.74 29.12v-7.95a.92.92 0 0 0-.28-.66.93.93 0 0 0-1.32 0 .92.92 0 0 0-.28.66v5.7L16.21 15.2 27.86 3.55v5.69c0 .24.09.48.28.66.36.37.96.37 1.32 0a.91.91 0 0 0 .28-.66V1.28a.91.91 0 0 0-.28-.66.93.93 0 0 0-.66-.27h-7.95c-.24 0-.48.09-.67.27a.95.95 0 0 0 0 1.33c.19.18.43.27.67.27h5.69L14.88 13.88 3.22 2.22h5.69c.24 0 .48-.1.67-.27a.95.95 0 0 0 0-1.33.97.97 0 0 0-.67-.28H.96C.72.35.48.45.3.63a.91.91 0 0 0-.28.66v7.96c0 .24.09.48.28.66.36.37.96.37 1.32 0a.95.95 0 0 0 .28-.66v-5.7L13.55 15.2 1.9 26.86v-5.69c0-.24-.1-.48-.28-.66a.93.93 0 0 0-1.32 0 .92.92 0 0 0-.28.66v7.95c0 .25.09.48.28.67.18.18.42.27.66.27h7.95c.24 0 .48-.09.67-.27a.95.95 0 0 0 0-1.33.96.96 0 0 0-.67-.27H3.22l11.66-11.66 11.66 11.66h-5.69c-.24 0-.48.09-.67.27a.95.95 0 0 0 0 1.33c.19.18.43.27.67.27h7.95c.24 0 .48-.09.66-.27a.9.9 0 0 0 .28-.67z"/></svg>